<svg xmlns="http://www.w3.org/2000/svg" viewBox="0 0 256 256">
  <defs>
    <linearGradient id="bg" x1="0" x2="1" y1="0" y2="1">
      <stop offset="0" stop-color="#d4ff72"/>
      <stop offset="1" stop-color="#74d8ff"/>
    </linearGradient>
    <linearGradient id="card" x1="0" x2="1" y1="0" y2="1">
      <stop offset="0" stop-color="#12212a"/>
      <stop offset="1" stop-color="#1b3340"/>
    </linearGradient>
  </defs>
  <rect width="256" height="256" rx="56" fill="url(#bg)"/>
  <rect x="36" y="36" width="184" height="184" rx="38" fill="url(#card)"/>
  <path d="M87 128c0-24 17-41 41-41 15 0 28 6 35 16l-18 16c-4-5-10-8-17-8-12 0-20 7-20 17s8 17 20 17c7 0 13-3 17-8l18 16c-7 10-20 16-35 16-24 0-41-17-41-41z" fill="#f4efe5"/>
</svg>
